<svg width="24" height="24" viewBox="0 0 24 24" fill="none" xmlns="http://www.w3.org/2000/svg">
<path d="M6.29463 0C5.97906 0 5.7232 0.2442 5.7232 0.545455V3.54545C5.7232 3.84668 5.97906 4.09091 6.29463 4.09091C6.61023 4.09091 6.86606 3.84668 6.86606 3.54545V0.545455C6.86606 0.2442 6.61023 0 6.29463 0ZM17.7232 0C17.4076 0 17.1518 0.2442 17.1518 0.545455V3.54545C17.1518 3.84668 17.4076 4.09091 17.7232 4.09091C18.0388 4.09091 18.2946 3.84668 18.2946 3.54545V0.545455C18.2946 0.2442 18.0388 0 17.7232 0ZM2.29463 2.18182C1.02449 2.18182 0 3.15965 0 4.37214V9.27273H24V4.37214C24 3.15965 22.9755 2.18182 21.7054 2.18182H20H18.8661V4.11646C19.5477 4.49555 20.0089 5.19785 20.0089 6C20.0089 7.19853 18.9789 8.18182 17.7232 8.18182C16.4677 8.18182 15.4375 7.19853 15.4375 6C15.4375 5.19785 15.8988 4.49555 16.5803 4.11646V2.18182H7.42857V4.10795C8.11603 4.48557 8.58034 5.19368 8.58034 6C8.58034 7.19853 7.55034 8.18182 6.29463 8.18182C5.03911 8.18182 4.00891 7.19853 4.00891 6C4.00891 5.20045 4.46486 4.49642 5.14286 4.11646V2.18182H2.29463ZM6.29463 4.90909C5.6568 4.90909 5.15177 5.39103 5.15177 6C5.15177 6.60895 5.6568 7.09091 6.29463 7.09091C6.93257 7.09091 7.43749 6.60895 7.43749 6C7.43749 5.39103 6.93257 4.90909 6.29463 4.90909ZM17.7232 4.90909C17.0854 4.90909 16.5803 5.39103 16.5803 6C16.5803 6.60895 17.0854 7.09091 17.7232 7.09091C18.3611 7.09091 18.8661 6.60895 18.8661 6C18.8661 5.39103 18.3611 4.90909 17.7232 4.90909ZM0 10.3636V21.8097C0 23.0222 1.02446 24 2.29463 24H21.7054C22.9755 24 24 23.0222 24 21.8097V10.3636H0Z" fill="#1BBB9B"/>
</svg>
