<svg width="103" height="24" viewBox="0 0 103 24" fill="none" xmlns="http://www.w3.org/2000/svg">
<path d="M33.2543 13.1747C33.2543 10.6766 35.1377 8.62451 37.7863 8.62451C38.8163 8.62451 39.6697 8.89217 40.376 9.30853V10.171C39.6108 9.72488 38.7574 9.45723 37.904 9.45723C35.7557 9.45723 34.1371 11.0632 34.1371 13.2044C34.1371 15.316 35.7557 16.9219 37.904 16.9219C38.9634 16.9219 39.8168 16.6245 40.5526 16.1189V16.9516C39.7874 17.4572 38.8457 17.7249 37.7863 17.7249C35.1377 17.7249 33.2543 15.6728 33.2543 13.1747Z" fill="#354250"/>
<path d="M42.4949 13.1747C42.4949 10.7657 44.29 8.59473 47.0563 8.59473C49.852 8.59473 51.6472 10.7657 51.6472 13.1747C51.6472 15.5836 49.852 17.7248 47.0563 17.7248C44.29 17.7248 42.4949 15.5836 42.4949 13.1747ZM50.7349 13.1747C50.7349 11.0631 49.1457 9.42744 47.0563 9.42744C44.9669 9.42744 43.3777 11.0631 43.3777 13.1747C43.3777 15.2564 44.9669 16.8921 47.0563 16.8921C49.1457 16.8921 50.7349 15.2862 50.7349 13.1747Z" fill="#354250"/>
<path d="M54.2074 15.7026V4.78809H55.0903V15.4944C55.0903 16.4163 55.5317 16.8624 56.3557 16.8624C56.7088 16.8624 56.9737 16.7732 57.268 16.5948V17.4572C56.9148 17.6654 56.5028 17.7249 56.0908 17.7249C55.208 17.7249 54.2074 17.3085 54.2074 15.7026Z" fill="#354250"/>
<path d="M58.6217 13.1747C58.6217 10.5873 60.358 8.59473 62.8888 8.59473C65.8906 8.59473 66.8617 11.2713 66.8617 12.9962V13.2936H59.5046C59.5634 15.4349 61.182 16.8921 63.448 16.8921C64.5663 16.8921 65.508 16.565 66.2143 16.0892V16.9516C65.6257 17.3977 64.5663 17.7248 63.3303 17.7248C60.6523 17.7248 58.6217 15.8512 58.6217 13.1747ZM66.0083 12.5501C66.0083 11.3308 65.1843 9.42744 62.8888 9.42744C60.7994 9.42744 59.6223 11.0631 59.534 12.5501H66.0083Z" fill="#354250"/>
<path d="M70.452 15.197V9.63567H68.2743V8.83269H70.452V6.06689H71.3349V8.83269H74.4837V9.63567H71.3349V14.9888C71.3349 16.4163 71.8057 16.8922 72.924 16.8922C73.5714 16.8922 74.0717 16.6543 74.366 16.5056V17.368C74.0717 17.5762 73.3654 17.7546 72.6886 17.7546C71.1289 17.7249 70.452 16.7137 70.452 15.197Z" fill="#354250"/>
<path d="M84.666 8.83264V17.5167H83.7832V16.0297C83.1063 16.8624 81.8409 17.7248 80.1634 17.7248C77.9269 17.7248 76.838 16.3865 76.838 14.0966V8.83264H77.7209V13.9479C77.7209 16.5055 79.31 16.9219 80.4283 16.9219C81.782 16.9219 83.1946 15.9107 83.7832 14.9293V8.83264H84.666Z" fill="#354250"/>
<path d="M87.9032 8.83269H88.7861V10.2602C89.3452 9.39775 90.4635 8.62451 92.0232 8.62451C93.5241 8.62451 94.4363 9.30853 94.8189 10.4684C95.4369 9.54645 96.5846 8.62451 98.2621 8.62451C100.204 8.62451 101.323 9.87358 101.323 12.1041V17.5167H100.44V12.2825C100.44 9.78436 98.9095 9.45723 98.0561 9.45723C96.7906 9.45723 95.5546 10.4089 95.0249 11.4795C95.0543 11.8364 95.0543 12.0446 95.0543 12.4015V17.5167H94.1715V12.2528C94.1715 9.72488 92.6706 9.42749 91.7878 9.42749C90.5812 9.42749 89.3746 10.2899 88.7861 11.3606V17.487H87.9032V8.83269Z" fill="#354250"/>
<path d="M23.2781 2.82527L22.0126 5.56133L20.7472 8.29739L13.8021 23.4052L6.82749 8.29739L5.56206 5.56133L4.29663 2.82527C7.18063 1.45724 10.3883 0.713745 13.8021 0.713745C17.2158 0.713745 20.3941 1.45724 23.2781 2.82527Z" fill="url(#paint0_linear)"/>
<path d="M13.802 23.4052L0.294312 13.8587C1.11831 12.6692 2.08945 11.5985 3.20774 10.6469L13.802 23.4052Z" fill="url(#paint1_linear)"/>
<path d="M27.2803 13.8587L13.802 23.4052L24.3963 10.6469C25.4851 11.5688 26.4563 12.6394 27.2803 13.8587Z" fill="url(#paint2_linear)"/>
<path d="M26.3091 8.32712L24.3963 10.6468L13.802 23.4052L20.7766 8.32712L22.042 5.59106C23.5723 6.30482 25.0143 7.22675 26.3091 8.32712Z" fill="url(#paint3_linear)"/>
<path d="M13.8019 23.4051L3.20767 10.6468L1.26538 8.32708C2.56024 7.22671 4.00224 6.30477 5.56195 5.56128L6.82738 8.29734L13.8019 23.4051Z" fill="url(#paint4_linear)"/>
<defs>
<linearGradient id="paint0_linear" x1="13.7902" y1="2.09397" x2="13.7902" y2="21.2886" gradientUnits="userSpaceOnUse">
<stop stop-color="#67A396"/>
<stop offset="1" stop-color="#379C96"/>
</linearGradient>
<linearGradient id="paint1_linear" x1="11.3741" y1="20.8042" x2="3.51465" y2="13.9617" gradientUnits="userSpaceOnUse">
<stop stop-color="#7AA5A7"/>
<stop offset="1" stop-color="#98BDBB"/>
</linearGradient>
<linearGradient id="paint2_linear" x1="15.9222" y1="20.9829" x2="23.3277" y2="14.5897" gradientUnits="userSpaceOnUse">
<stop stop-color="#7AA5A7"/>
<stop offset="1" stop-color="#98BDBB"/>
</linearGradient>
<linearGradient id="paint3_linear" x1="15.7478" y1="21.0398" x2="22.744" y2="9.56407" gradientUnits="userSpaceOnUse">
<stop stop-color="#26323E"/>
<stop offset="1" stop-color="#354250"/>
</linearGradient>
<linearGradient id="paint4_linear" x1="12.2617" y1="20.5583" x2="4.92855" y2="9.50454" gradientUnits="userSpaceOnUse">
<stop stop-color="#26323E"/>
<stop offset="1" stop-color="#354250"/>
</linearGradient>
</defs>
</svg>
