<svg width="93" height="63" viewBox="0 0 93 63" fill="none" xmlns="http://www.w3.org/2000/svg">
<path fill-rule="evenodd" clip-rule="evenodd" d="M25.2518 13.6625C33.7511 -6.27598 64.0531 -3.69137 69.2266 17.2317C75.016 18.3394 80.0664 22.1548 82.53 27.5702C99.6518 35.324 94.7247 62.4009 74.7697 62.4009H18.2306C-0.862098 62.4009 -6.52832 37.2933 8.86903 28.4317C10.5935 20.5548 17.2452 14.6471 25.2518 13.6625ZM30.3021 48.9856C28.4545 50.9548 25.375 48.0009 27.3458 46.0317C32.0266 41.2317 39.9101 39.3856 46.4386 39.3856C52.967 39.3856 60.9737 41.2317 65.6545 46.0317C67.5021 48.0009 64.5458 50.9548 62.6982 48.9856C58.7564 45.0471 51.8584 43.5702 46.4386 43.5702C41.1419 43.5702 34.1207 45.0471 30.3021 48.9856ZM59.2492 25.6009C57.0319 25.6009 55.1843 27.4471 55.1843 29.6625C55.1843 31.7548 57.0319 33.6009 59.2492 33.6009C61.3432 33.6009 63.1909 31.7548 63.1909 29.6625C63.1909 27.4471 61.3432 25.6009 59.2492 25.6009ZM33.7511 25.6009C35.9684 25.6009 37.816 27.4471 37.816 29.6625C37.816 31.7548 35.9684 33.6009 33.7511 33.6009C31.5339 33.6009 29.8094 31.7548 29.8094 29.6625C29.8094 27.4471 31.5339 25.6009 33.7511 25.6009ZM78.5882 31.6317C92.877 36.0625 89.6743 57.1086 74.7697 57.1086H18.2306C3.8187 57.1086 0.000153821 37.0471 13.673 32.0009C14.0425 24.6163 20.0783 18.7086 27.5922 18.7086C28.0849 18.7086 28.5776 18.7086 28.9472 18.7086C33.9975 -1.10675 63.4372 1.47786 64.669 22.0317C64.9154 22.0317 65.2849 22.0317 65.6545 22.0317C71.6902 22.0317 76.8637 26.0932 78.5882 31.6317Z" fill="#EC1616"/>
</svg>
