<svg width="24" height="24" viewBox="0 0 24 24" fill="none" xmlns="http://www.w3.org/2000/svg">
<path d="M19.8921 22.3753C19.8921 23.8117 19.532 24.1344 18.4183 23.8015C17.2685 23.4584 16.2436 22.8131 15.221 22.173C14.1984 21.5328 13.2263 20.8517 12.2614 20.1399C12.1907 20.0715 12.0987 20.0337 12.0033 20.0337C11.9079 20.0337 11.8159 20.0715 11.7453 20.1399C10.215 21.2994 8.61712 22.3539 6.96135 23.2971C6.42455 23.6167 5.8449 23.8464 5.24269 23.9782C4.74342 24.0678 4.50098 23.886 4.40737 23.3508C4.25614 22.4649 4.42897 21.602 4.57539 20.7416C4.87622 19.0654 5.2771 17.4113 5.77557 15.7895C5.80586 15.7238 5.82368 15.6524 5.82801 15.5793C5.83233 15.5063 5.82307 15.433 5.80077 15.3638C5.77846 15.2945 5.74355 15.2307 5.69803 15.1759C5.65251 15.121 5.59729 15.0764 5.53554 15.0444C3.9633 13.8486 2.40066 12.6401 1.03486 11.1626C0.68558 10.8058 0.388613 10.3949 0.153925 9.94382C-0.131718 9.3549 -0.0261025 8.98106 0.52358 8.66355C1.15964 8.34328 1.8424 8.14149 2.54228 8.06694C4.31481 7.81365 6.10201 7.69557 7.89029 7.71359C7.93853 7.72306 7.98807 7.72191 8.03588 7.71023C8.08368 7.69854 8.12875 7.67656 8.16831 7.64563C8.20787 7.6147 8.24108 7.57548 8.26592 7.53036C8.29076 7.48525 8.3067 7.4352 8.31276 7.38328C8.79283 5.50896 9.2729 3.63976 10.125 1.90627C10.3783 1.32194 10.741 0.799103 11.1908 0.369947C11.7837 -0.142162 12.3334 -0.124238 12.8974 0.43396C13.5071 1.03825 13.8768 1.81153 14.2152 2.59762C14.8545 4.1378 15.363 5.736 15.7347 7.37303C15.7396 7.42885 15.7552 7.483 15.7806 7.53207C15.806 7.58115 15.8406 7.6241 15.8823 7.65824C15.924 7.69237 15.9718 7.71695 16.0229 7.73044C16.0739 7.74393 16.1269 7.74604 16.1787 7.73663C18.099 7.77504 20.0193 7.82369 21.9156 8.14888C22.4157 8.22003 22.9063 8.35322 23.3774 8.54576C24.0543 8.84279 24.1599 9.18846 23.7879 9.8542C23.5495 10.2584 23.2684 10.6321 22.9502 10.968C21.582 12.4839 20.0145 13.7513 18.4567 15.0265C18.3755 15.0757 18.3148 15.1559 18.2867 15.2509C18.2587 15.3459 18.2654 15.4487 18.3055 15.5386C18.8935 17.325 19.369 19.1514 19.7289 21.0054C19.8144 21.4572 19.8689 21.915 19.8921 22.3753Z" fill="#1BBB9B"/>
</svg>
