<svg width="12" height="16" viewBox="0 0 12 16" fill="none" xmlns="http://www.w3.org/2000/svg">
<path fill-rule="evenodd" clip-rule="evenodd" d="M3.09131 6.21638H8.90869V4.414C8.90869 2.82031 7.59874 1.5145 5.99962 1.5145C4.39749 1.5145 3.09131 2.81693 3.09131 4.414V6.21638ZM10.428 6.29521C11.3324 6.54743 12 7.37806 12 8.35732V13.8591C12 15.0369 11.0338 16 9.85265 16H2.14772C0.966175 16 0 15.0369 0 13.8591V8.35732C0 7.37806 0.667587 6.54743 1.57163 6.29521V4.414C1.57163 1.98855 3.56686 0 5.99962 0C8.43577 0 10.428 1.98555 10.428 4.414V6.29521ZM6 9.08548C6.76285 9.08548 7.38149 9.70217 7.38149 10.4622C7.38149 10.8834 7.19172 11.2602 6.89313 11.5124C6.72821 11.6521 6.64198 11.8371 6.64198 12.0529V12.4917C6.64198 12.8445 6.35281 13.1313 5.99962 13.1313C5.64644 13.1313 5.35802 12.8438 5.35802 12.4917V12.0529C5.35802 11.8371 5.27179 11.6521 5.10725 11.5124C4.80866 11.2602 4.61851 10.8834 4.61851 10.4622C4.61851 9.70217 5.23753 9.08548 6 9.08548Z" fill="#EC1616"/>
</svg>
