<svg width="16" height="16" viewBox="0 0 16 16" fill="none" xmlns="http://www.w3.org/2000/svg">
<path d="M8 0C3.58882 0 0 3.58882 0 8C0 12.4112 3.58882 16 8 16C12.4112 16 16 12.4112 16 8C16 3.58882 12.4112 0 8 0ZM9.96523 14.9057C9.96278 14.8582 9.96014 14.7996 9.96014 14.7243C9.96014 14.608 9.9707 14.4895 10.0468 14.4827L10.2488 14.1361C10.3913 13.8912 10.396 13.7873 10.4032 13.63C10.4066 13.5554 10.4098 13.4713 10.428 13.3581L10.305 13.2045V13.0841L10.0839 12.8902H9.96391L9.54106 12.6548L9.53634 12.6347C9.53597 12.633 9.49112 12.4494 9.40048 12.2683C9.3236 12.114 9.32529 12.072 9.33 11.9482C9.33151 11.9116 9.33302 11.8671 9.33302 11.8087C9.33302 11.6853 9.32529 11.6295 9.3202 11.6047L9.28365 11.6052L9.33547 11.4488C9.35412 11.3936 9.3969 11.3423 9.43854 11.2926C9.47416 11.2496 9.51072 11.2054 9.52372 11.1667C9.54332 11.1081 9.53408 10.917 9.52315 10.797L9.30683 10.6069L9.21298 10.4186C9.19546 10.3834 9.18547 10.377 9.18491 10.377C9.18792 10.38 9.17397 10.3928 9.16474 10.4009C9.13516 10.4277 9.09464 10.4642 9.03585 10.4642C9.0074 10.4642 8.97762 10.4552 8.94879 10.438C8.88717 10.4009 8.85627 10.357 8.85627 10.3071C8.85627 10.2731 8.87115 10.2441 8.88868 10.2219C8.80822 10.1814 8.66519 10.103 8.53498 9.99501C8.3603 9.84878 8.18297 9.81731 8.1809 9.81674L7.84397 9.81768C7.72507 9.81768 7.63443 9.70914 7.59957 9.6609L7.07665 9.65845L6.98224 9.62698C6.88444 9.59438 6.72879 9.50111 6.722 9.49734C6.70712 9.48905 6.30631 9.27196 6.11485 9.04829C6.03137 8.95105 6.00424 8.88472 6.02761 8.83384C6.0342 8.81952 6.05003 8.79766 6.08395 8.78711C5.98803 8.54063 5.86706 8.28492 5.77887 8.15697L5.78866 8.21953C5.79865 8.24045 5.83106 8.30829 5.86159 8.38479C5.92999 8.56117 5.92378 8.62411 5.91285 8.65633C5.9038 8.68403 5.87572 8.73039 5.78942 8.73039C5.70669 8.73039 5.60381 8.68667 5.59891 8.6846L5.58402 8.67461L5.49018 8.58077C5.39388 8.48448 5.33 8.38913 5.32774 8.38517C5.32265 8.37725 5.19715 8.18806 5.16437 8.04033C5.14383 7.94893 5.1263 7.92688 5.0937 7.88599C5.07957 7.86828 5.06374 7.84906 5.04508 7.82079C4.9812 7.72488 4.82894 7.38946 4.82197 7.37532L4.81783 7.35573V7.12131C4.78485 7.07872 4.68027 6.93871 4.57342 6.75197C4.46318 6.55995 4.48617 6.44896 4.50332 6.4075L4.47279 6.16366L4.53667 5.78037C4.56814 5.59062 4.62958 5.405 4.6324 5.39728L4.815 4.97084L4.7579 4.79974C4.70495 4.64145 4.60621 4.61205 4.60206 4.61092L4.56777 4.60131L4.56739 4.56532V3.3872L4.47995 3.24153C4.43228 3.16201 4.4206 3.11283 4.44095 3.07684C4.44283 3.07326 4.44472 3.07043 4.44698 3.0676C4.37462 2.96566 4.28605 2.87163 4.24497 2.87163C4.20257 2.91176 4.16752 2.92985 4.1321 2.92985C4.10515 2.92985 4.08499 2.9193 4.06916 2.90573L3.73091 3.13111L3.36232 3.34593L3.21176 3.59372C3.11547 3.75239 3.0693 3.77463 2.99034 3.80383C2.94549 3.82004 2.88972 3.84039 2.79229 3.91351C2.67433 4.00207 2.65511 4.05917 2.65417 4.08536C2.65379 4.10835 2.6666 4.11985 2.66792 4.12098L2.7286 4.17242L2.65511 4.20125C2.64456 4.20559 2.39996 4.29717 2.2739 4.32864C2.23301 4.33881 2.19833 4.3439 2.17007 4.3439C2.10807 4.3439 2.08659 4.31865 2.07905 4.30376L2.07509 4.29152L2.02497 4.02506L2.07943 3.91709C2.12654 3.82268 2.36906 3.66967 2.44443 3.6235L2.54035 3.40566L2.69091 3.23023L2.39638 3.06836L2.35323 3.0546C2.52999 2.85259 2.71692 2.66001 2.91421 2.47779L2.9176 2.47892L3.17595 2.39261L3.33406 2.20587L3.99265 1.76699L4.14604 1.64394C4.30471 1.51675 4.35012 1.50978 4.51764 1.48207L4.54402 1.47812C4.59773 1.46888 4.63561 1.45042 4.65275 1.4246C4.66689 1.40218 4.66274 1.37881 4.66274 1.37881L4.64842 1.32021H4.92806C4.92806 1.31964 5.11443 1.28874 5.30419 1.28874L5.48 1.29307C5.48302 1.29401 5.75644 1.41442 5.99425 1.41442C6.02346 1.41442 6.04815 1.41442 6.06624 1.41405C6.08093 1.38786 6.11674 1.37108 6.16724 1.35412L6.23734 1.33132C6.38507 1.28308 6.48269 1.25124 6.55655 1.17737C6.60084 1.13346 6.68432 1.1116 6.81189 1.1116C6.93456 1.1116 7.05535 1.13195 7.06044 1.1329L7.09964 1.13949V1.23748C7.14731 1.24935 7.24266 1.26838 7.36025 1.26838C7.44033 1.26838 7.51797 1.25915 7.59165 1.242L7.50572 1.04282L7.73826 0.814434L7.99793 0.908277L8.10515 0.855137C8.14868 0.83309 8.20747 0.82216 8.27946 0.82216C8.38197 0.82216 8.48297 0.844019 8.50841 0.849673H9.66241C9.77623 0.849673 9.90135 0.894521 10.0338 0.983087C10.0536 0.996467 10.0809 1.00306 10.1143 1.00306C10.1782 1.00306 10.2407 0.978753 10.2411 0.978188L10.2583 0.975362H10.2897C10.3061 0.975362 10.3389 0.975361 10.4976 1.13158H10.6478L11.1296 1.42083L11.3026 1.55839L11.4307 1.97145L11.5538 2.19042L11.7505 2.51755L11.7134 2.73256L11.6342 2.93023L11.5922 2.91647C11.5901 2.9161 11.4049 2.85467 11.1925 2.8247L10.9628 2.82508L10.7618 2.65737L10.6016 2.46686C10.5763 2.44556 10.4295 2.3227 10.2539 2.11881C10.2089 2.06529 10.1669 2.03722 10.1329 2.03722C10.0828 2.03722 10.051 2.10581 10.051 2.10637L10.0451 2.119L9.75154 2.31498L9.57064 2.49757C9.56235 2.5036 9.35375 2.65473 9.2665 2.84392C9.23899 2.90291 9.22335 2.93833 9.21374 2.9585L9.4099 3.23927L9.60399 3.30409L9.73458 3.63009C9.77453 3.67475 10.0186 3.94498 10.1032 4.02996C10.1642 4.09083 10.2405 4.1385 10.2814 4.16187L10.4968 3.94592C10.5055 3.90258 10.5313 3.75955 10.5566 3.55547C10.5626 3.50685 10.566 3.47086 10.5679 3.44297L10.4961 3.51515L10.6323 3.1068L10.9325 3.10906L11.4835 3.30843L11.7026 3.52796L11.9318 3.7897L11.935 3.80082C11.9363 3.80591 11.9672 3.9331 11.9672 4.0635C11.9672 4.18392 11.9672 4.20879 12.0563 4.38705C12.1308 4.53517 12.2638 4.66821 12.4119 4.74245C12.5263 4.79974 12.542 4.92373 12.5338 4.99515L12.674 5.24257V5.61964L12.1656 5.31512L11.9559 5.04584L11.7886 5.00382L11.8649 5.07071L12.0484 5.32755L12.0117 5.35525C12.006 5.35921 11.8788 5.45381 11.7788 5.48754C11.6891 5.51712 11.5666 5.57818 11.5653 5.57893L11.5557 5.58364H10.9368L10.7979 5.72252L10.7071 5.87459L10.5818 6.09318C10.5775 6.10072 10.4793 6.26202 10.3144 6.36095C10.2848 6.37867 10.2677 6.39732 10.2677 6.41108C10.2673 6.43068 10.2954 6.45687 10.3144 6.46837L10.3368 6.48212L10.3374 6.82338L9.89947 6.99166L9.50111 7.21986L9.64489 7.62218L9.71404 7.89711L9.55933 8.12946L9.30871 8.07594C9.23107 8.05898 9.17473 8.02205 9.14024 7.96514C9.09935 7.89711 9.10425 7.8191 9.11028 7.77783C9.07278 7.73939 8.98516 7.64592 8.93447 7.56979C8.8949 7.51062 8.76487 7.49668 8.72248 7.49668H8.62863C8.54515 7.49668 8.176 7.58713 8.00188 7.65044C7.91859 7.68059 7.89372 7.72525 7.86244 7.78197C7.837 7.82814 7.80854 7.88015 7.74749 7.92594C7.63951 8.00697 7.50365 8.16488 7.47783 8.19579C7.45051 8.2591 7.39002 8.41739 7.39002 8.4841V8.72756L7.5078 9.08107L7.66684 9.18698C7.71659 9.17756 7.85773 9.14835 7.96665 9.09973C8.0863 9.04659 8.11627 8.99533 8.11683 8.99496L8.12493 8.98384C8.1417 8.96707 8.29264 8.81858 8.3944 8.78409C8.42681 8.77354 8.45979 8.76789 8.49145 8.76789C8.54779 8.76789 8.58303 8.78504 8.58699 8.78692L8.59924 8.79559L8.77505 8.97159L8.73699 9.12253L8.6765 9.33434L8.70137 9.52711H8.93127L9.10161 9.70575L9.24879 9.82296C9.28553 9.83879 9.47529 9.92189 9.56442 9.98125C9.643 10.0336 9.79206 10.11 9.83182 10.1303H9.91454C9.9869 10.1303 10.0374 10.0811 10.038 10.0811L10.2632 9.91925L10.487 9.79168C10.5626 9.74815 10.6159 9.7295 10.6645 9.7295C10.7032 9.7295 10.7337 9.74137 10.7627 9.75343C10.7995 9.76869 10.8411 9.78546 10.9176 9.78546H11.2941C11.3804 9.78546 11.4641 9.82974 11.4955 9.84783H11.7771L12.1125 10.0519L12.3827 10.3521L12.6772 10.387L12.6669 10.5518C12.6707 10.5807 12.6867 10.7248 12.6552 10.8196C12.6437 10.8535 12.649 10.9129 12.6552 10.9886C12.6644 11.0902 12.6748 11.2163 12.6571 11.3742C12.6339 11.5858 12.5557 11.6467 12.5009 11.6625V11.8817L12.2186 12.4458V12.6356L12.0869 12.8657L11.8971 13.1508C11.8432 13.2318 11.7013 13.4223 11.6578 13.4811C11.6659 13.5243 11.6787 13.6227 11.6521 13.7042C11.6173 13.8075 11.5193 13.9066 11.5148 13.9106C11.4209 14.0048 11.2645 14.1763 11.2442 14.2373C11.2131 14.3299 11.1102 14.4399 11.0821 14.4689L10.8974 14.8694L10.8428 14.9519C10.5232 15.0829 10.1931 15.1933 9.85311 15.2802L9.87516 15.1997L9.93753 15.1057C9.97239 15.0527 9.97051 15.0128 9.96523 14.9057ZM11.4026 8.54534V8.90545L11.302 9.07335C11.2549 9.15249 11.2447 9.1687 11.211 9.1687C11.1893 9.1687 11.1754 9.15494 11.1695 9.1491C11.1624 9.14194 11.1586 9.13327 11.088 9.15664C11.0327 9.17529 10.9956 9.18321 10.9651 9.18321C10.8895 9.18321 10.859 9.13648 10.8202 9.07712C10.8034 9.05187 10.7836 9.02077 10.7542 8.98478C10.7158 8.93654 10.693 8.93296 10.6868 8.93296C10.6691 8.93296 10.6517 8.96047 10.6466 8.97291L10.6344 9.00193L9.79941 9.0025L9.58025 8.78278H9.44307C9.41254 8.78164 9.41348 8.78334 9.30909 8.6226C9.22278 8.48919 9.19791 8.4157 9.22372 8.36859C9.23126 8.35427 9.25105 8.33052 9.2942 8.33052C9.39275 8.33052 9.60833 8.48146 9.67673 8.53159L9.78603 8.52801C9.92019 8.52367 9.95035 8.52801 9.95035 8.52801H10.1324L10.3451 8.54892C10.3664 8.54082 10.4107 8.52801 10.4774 8.52801C10.5296 8.52801 10.5865 8.53554 10.6463 8.55137C10.6815 8.56042 10.7552 8.57191 10.9048 8.57191C11.1141 8.57191 11.3486 8.55043 11.351 8.55005L11.4026 8.54534Z" fill="#1BBB9B"/>
</svg>
