<svg width="16" height="16" viewBox="0 0 16 16" fill="none" xmlns="http://www.w3.org/2000/svg">
<path d="M16 8C16 3.58168 12.4183 0 8 0C3.58168 0 0 3.58168 0 8C0 12.4183 3.58168 16 8 16C12.4183 16 16 12.4183 16 8ZM7.69449 1.956C8.33962 1.79494 8.9853 2.10647 9.26235 2.71403C9.36048 2.92925 9.39021 3.15652 9.37598 3.39162C9.33549 4.06338 9.29628 4.73514 9.25761 5.4069C9.19724 6.4564 9.13686 7.50608 9.07832 8.55557C9.06008 8.88097 9.04694 9.20672 9.0329 9.5323C9.00846 10.1012 8.58403 10.5211 8.03101 10.5223C7.49075 10.5236 7.05812 10.109 7.02948 9.5675C6.94339 7.94546 6.8562 6.32361 6.76774 4.70176C6.74403 4.26602 6.71485 3.83065 6.68658 3.39509C6.64262 2.71458 7.06286 2.11359 7.69449 1.956ZM8.02499 14.1507C7.28228 14.1443 6.68111 13.5386 6.68384 12.7993C6.68658 12.0493 7.29158 11.4511 8.04487 11.4538C8.78594 11.4564 9.38784 12.0752 9.38054 12.8271C9.37343 13.5484 8.75019 14.1569 8.02499 14.1507Z" fill="#1BBB9B"/>
</svg>
