<svg width="12" height="16" viewBox="0 0 12 16" fill="none" xmlns="http://www.w3.org/2000/svg">
<path fill-rule="evenodd" clip-rule="evenodd" d="M2.64706 13.1556C4.23529 15.0756 6 16 6 16C6 16 7.72941 15.0756 9.35294 13.1556L9.88235 12.4444C11.0471 10.8444 12 8.74667 12 6.04444C12 2.70222 9.31765 0 6 0C2.68235 0 0 2.70222 0 6.04444C0 8.74667 0.952941 10.8444 2.11765 12.4444L2.64706 13.1556ZM2.82349 6.04445C2.82349 7.82223 4.23525 9.24445 5.99996 9.24445C7.76466 9.24445 9.17643 7.82223 9.17643 6.04445C9.17643 4.26667 7.76466 2.84445 5.99996 2.84445C4.23525 2.84445 2.82349 4.26667 2.82349 6.04445Z" fill="#354250"/>
</svg>
